# File created by Blade
# Date/Time:  Wed Apr 08 17:19:54 2015
# Frame Rate: 120.000 fps
#------------------------------------------------------
:FULLY-SPECIFIED
:DEGREES
1540
root 7.812982 36.248381 -3.542834 176.390075 -82.210685 -181.142174
Spine 10.149025 5.235159 -6.457314
Head 10.433940 11.218839 3.451365
LeftShoulder -8.457601 11.798138 23.357551
LeftArm 12.146131 -32.923179 -42.483498
LeftForeArm 18.113128 0.000000 23.087699
LeftHand -13.060169 -0.000000 -11.729982
LeftHandThumb1 -26.253704 0.000000 33.147579
RightShoulder -24.816286 -40.799194 -6.193164
RightArm 50.370662 38.048157 57.678068
RightForeArm 6.246676 -0.000000 12.797243
RightHand -3.433026 -0.000000 8.515499
RightHandThumb1 -24.326973 -0.000000 -32.862282
LeftUpLeg 8.217370 8.501149 2.719190
LeftLeg 9.341306 -0.000000 -0.000000
LeftFoot -13.021277 -1.345544 -10.570950
LeftToeBase 7.888083 -0.000000 -0.000000
RightUpLeg 10.053610 -10.915769 -11.984112
RightLeg 3.432568 -0.000000 -0.000000
RightFoot -3.772960 2.628848 21.384271
RightToeBase 1.992330 -0.000000 -0.000000
1541
root 7.834308 36.239770 -3.638585 177.014956 -82.222347 -181.765317
Spine 10.121846 5.141859 -6.542789
Head 10.496913 11.359846 3.488107
LeftShoulder -8.429265 11.731780 23.523802
LeftArm 11.964526 -33.197811 -42.040473
LeftForeArm 17.950555 0.000000 22.870332
LeftHand -13.082731 -0.000000 -11.694179
LeftHandThumb1 -26.253704 0.000000 33.147579
RightShoulder -24.757769 -40.737963 -6.356436
RightArm 50.318365 38.447515 57.444054
RightForeArm 6.310667 -0.000000 12.852219
RightHand -3.566019 -0.000000 8.435869
RightHandThumb1 -24.326973 -0.000000 -32.862282
LeftUpLeg 8.201631 8.453956 2.790507
LeftLeg 9.327131 -0.000000 -0.000000
LeftFoot -13.052189 -1.340715 -10.754160
LeftToeBase 7.935599 -0.000000 -0.000000
RightUpLeg 10.080779 -10.967064 -11.896016
RightLeg 3.384559 -0.000000 -0.000000
RightFoot -4.094521 2.630665 21.314713
RightToeBase 2.301712 -0.000000 -0.000000
1542
root 7.852864 36.231775 -3.735240 177.546452 -82.231815 -182.332262
Spine 10.135379 5.072147 -6.609979
Head 10.569680 11.465716 3.526752
LeftShoulder -8.373100 11.652514 23.695238
LeftArm 11.814609 -33.601638 -41.661628
LeftForeArm 17.924849 -0.000000 22.628308
LeftHand -13.034750 -0.000000 -11.720823
LeftHandThumb1 -26.253704 0.000000 33.147579
RightShoulder -24.716233 -40.661258 -6.524226
RightArm 50.248144 38.818430 57.219145
RightForeArm 6.387297 -0.000000 12.881096
RightHand -3.534541 -0.000000 8.320059
RightHandThumb1 -24.326973 -0.000000 -32.862282
LeftUpLeg 8.245333 8.411327 2.880973
LeftLeg 9.284506 -0.000000 -0.000000
LeftFoot -13.094333 -1.337770 -11.059418
LeftToeBase 7.872666 -0.000000 -0.000000
RightUpLeg 10.139092 -11.109133 -11.823090
RightLeg 3.363973 -0.000000 -0.000000
RightFoot -4.393168 2.698526 21.198934
RightToeBase 2.596482 -0.000000 -0.000000
1543
root 7.870148 36.224708 -3.827078 178.224061 -82.254608 -183.048747
Spine 10.156062 4.997818 -6.681688
Head 10.629913 11.533388 3.539131
LeftShoulder -8.317461 11.567398 23.812438
LeftArm 11.664010 -34.015904 -41.239820
LeftForeArm 17.957047 -0.000000 22.427797
LeftHand -13.119298 -0.000000 -11.843945
LeftHandThumb1 -26.253704 0.000000 33.147579
RightShoulder -24.743945 -40.613643 -6.646541
RightArm 50.210937 39.141825 56.947800
RightForeArm 6.493785 -0.000000 12.865628
RightHand -3.527233 0.000000 8.185779
RightHandThumb1 -24.326973 -0.000000 -32.862282
LeftUpLeg 8.307048 8.261922 2.919663
LeftLeg 9.207429 -0.000000 -0.000000
LeftFoot -13.177537 -1.231641 -11.455825
LeftToeBase 7.711350 -0.000000 -0.000000
RightUpLeg 10.219478 -11.214855 -11.767516
RightLeg 3.311057 -0.000000 -0.000000
RightFoot -4.696840 2.707644 21.058166
RightToeBase 2.925335 -0.000000 -0.000000
1544
root 7.887283 36.218232 -3.920605 178.849407 -82.287092 -183.719181
Spine 10.175534 4.881041 -6.755909
Head 10.730551 11.639728 3.574932
LeftShoulder -8.281544 11.490403 23.960096
LeftArm 11.525016 -34.380064 -40.860166
LeftForeArm 17.790819 0.000000 22.120426
LeftHand -13.000053 -0.000000 -11.772354
LeftHandThumb1 -26.253704 0.000000 33.147579
RightShoulder -24.710739 -40.568975 -6.808842
RightArm 50.201361 39.491717 56.747037
RightForeArm 6.572680 0.000000 12.833369
RightHand -3.431889 -0.000000 8.186671
RightHandThumb1 -24.326973 -0.000000 -32.862282
LeftUpLeg 8.377649 8.166711 2.983675
LeftLeg 9.131397 -0.000000 -0.000000
LeftFoot -13.276177 -1.171609 -11.867239
LeftToeBase 7.085034 -0.000000 -0.000000
RightUpLeg 10.316011 -11.280395 -11.700616
RightLeg 3.245667 -0.000000 -0.000000
RightFoot -4.987098 2.698769 20.930290
RightToeBase 3.202125 -0.000000 -0.000000
1545
root 7.902648 36.211154 -4.010886 179.604389 -82.331217 -184.528075
Spine 10.206795 4.771579 -6.836614
Head 10.832711 11.705099 3.575704
LeftShoulder -8.246429 11.376752 24.079887
LeftArm 11.406246 -34.742297 -40.480880
LeftForeArm 17.633789 0.000000 21.857512
LeftHand -13.087937 -0.000000 -11.632485
LeftHandThumb1 -26.253704 0.000000 33.147579
RightShoulder -24.688088 -40.492734 -6.984926
RightArm 50.160968 39.809846 56.529880
RightForeArm 6.624570 -0.000000 12.759833
RightHand -3.468284 -0.000000 8.211221
RightHandThumb1 -24.326973 -0.000000 -32.862282
LeftUpLeg 8.461180 8.020933 3.024646
LeftLeg 9.049819 -0.000000 -0.000000
LeftFoot -13.406271 -1.115632 -12.441471
LeftToeBase 6.589502 -0.000000 -0.000000
RightUpLeg 10.437913 -11.288856 -11.645993
RightLeg 3.157104 -0.000000 -0.000000
RightFoot -5.312074 2.626954 20.778978
RightToeBase 3.537479 -0.000000 -0.000000
